<?xml version="1.0" standalone="no"?>
<!DOCTYPE svg PUBLIC "-//W3C//DTD SVG 20010904//EN"
 "http://www.w3.org/TR/2001/REC-SVG-20010904/DTD/svg10.dtd">
<svg version="1.0" xmlns="http://www.w3.org/2000/svg"
 width="70.000000pt" height="70.000000pt" viewBox="0 0 70.000000 70.000000"
 preserveAspectRatio="xMidYMid meet">

<g transform="translate(0.000000,70.000000) scale(0.100000,-0.100000)"
fill="#fff" stroke="none">
<path d="M237 495 c-87 -90 -153 -167 -147 -170 6 -3 71 6 144 22 149 30 174
28 210 -20 33 -44 28 -100 -12 -140 -29 -29 -38 -32 -90 -31 -65 0 -141 30
-184 71 -15 15 -31 24 -34 20 -14 -13 30 -103 67 -139 111 -106 315 -62 391
86 75 147 -18 336 -179 362 -24 3 -43 8 -43 11 0 2 9 22 21 44 11 23 19 43 17
45 -2 2 -75 -71 -161 -161z m33 -57 c0 -39 -50 -74 -74 -51 -7 7 52 73 66 73
4 0 8 -10 8 -22z"/>
</g>
</svg>
